<svg xmlns="http://www.w3.org/2000/svg" viewBox="0 0 318.67 259.14"><defs><style>.cls-1{fill:#032f24;}</style></defs><g id="Layer_2" data-name="Layer 2"><g id="Layer_1-2" data-name="Layer 1"><path class="cls-1" d="M221.5,100c0-2.06,0-3.15,0-4.23-.23-8.17,4.66-15,12.08-16.87a16.13,16.13,0,0,1,19.24,9.62c4.62,11.07,8.87,22.29,13.32,33.42,1.86,4.63,4.29,9.07,5.66,13.83a165.57,165.57,0,0,1,5.29,23.17c.54,3.92,1.57,6.75,4.37,9.48,11.44,11.18,22.68,22.56,34,33.87a24.53,24.53,0,0,1,1.71,1.82c2,2.46,2.19,5.45-.39,7-1.77,1.06-5.32,1.18-6.94.07-3.51-2.42-6.31-5.89-9.37-8.95-10.25-10.25-20.61-20.4-30.62-30.88a12,12,0,0,1-2.95-7.84c.25-9.6-2.32-18.22-6.26-26.93-5.75-12.72-10.39-25.95-15.52-39C244.5,96,243.84,94.5,243.2,93c-1.35-3.24-3.78-4.79-7.16-3.68-3.59,1.18-4.76,4-3.65,7.59,2,6.36,3.92,12.75,6.21,19,1.45,4,.93,7.1-1.26,10.76-7.76,13-9,26,1,38.59,2.2,2.78,2.38,5.66-.58,7.86s-5.69,1.1-7.84-1.59c-10.93-13.67-11.83-28.65-4.85-44.12,2.07-4.59,1.72-7.09-1.86-10.55C210,104.1,197.22,91,184.25,78a34.23,34.23,0,0,0-2.8-2.34c.48,5.47.82,11.15,1.56,16.77.16,1.25,1.65,2.4,2.68,3.45q10.91,11,21.89,21.93c2.65,2.63,4.35,5.57,1.25,8.63s-6,1.51-8.67-1.18c-7.26-7.34-14.52-14.7-22-21.81-1.21-1.16-3.63-1.49-5.47-1.44-3.26.09-6.51.76-10.46,1.27,1.41,1.56,2.63,3,4,4.36,8.82,8.85,17.74,17.61,26.48,26.53,7.79,8,7.07,18-1.41,25.32-1.05.91-2.05,3.12-1.67,4.27,2.82,8.55.82,15.38-6.46,20.69a6.68,6.68,0,0,0-1,1.4c9.8,12.11,21.9,19.87,37.87,20a14.33,14.33,0,0,1,11,4.5c12.6,12.85,25.36,25.53,38.11,38.24,2.77,2.76,4.62,5.8,1.23,9-3.13,3-6.07,1.12-8.67-1.48-12.11-12.15-24.2-24.34-36.49-36.32a11.86,11.86,0,0,0-6.79-3.22c-15.34-1.08-28.36-6.91-39-18-3.66-3.84-7.2-7.81-11.28-12.25-4.48,5.94-9.31,10.62-15.83,9.37-5.69-1.1-10.95-4.51-17-7.18.11-.12-.67.7-1.42,1.54-6.63,7.43-16.89,8.38-24,1.44C92.89,174.81,76,158,59.47,140.84c-9.21-9.58-13.32-21.68-14.42-34.91A11.94,11.94,0,0,0,42,99.1C29.54,86.34,16.86,73.79,4.26,61.18c-.83-.82-1.7-1.6-2.46-2.49-2.12-2.47-2.64-5.11-.06-7.52s5.27-1.93,7.59.32c5,4.87,9.93,9.87,14.88,14.81,9.32,9.3,18.8,18.45,27.84,28A14.35,14.35,0,0,1,55.6,103c.36,12,3.85,22.76,12.24,31.38,15.92,16.36,32.16,32.4,48.28,48.56,2.83,2.83,6,4,9.15.76s1.65-6.38-1.13-9.17c-6.83-6.83-13.68-13.65-20.44-20.55-2.29-2.34-2.62-5.06-.19-7.55s5.07-1.95,7.54.15c.75.64,1.46,1.36,2.17,2.06l32.88,32.87a33.84,33.84,0,0,0,2.51,2.43c2.57,2.08,5.3,2.17,7.67-.12,2.52-2.45,2.59-5.38.28-8.05-2.07-2.38-4.39-4.56-6.63-6.8q-14.31-14.31-28.65-28.6-.89-.89-1.74-1.8c-2.21-2.38-2.87-5.08-.56-7.59,2.5-2.7,5.43-2.28,7.93.16,5.49,5.35,10.89,10.8,16.31,16.22q13.26,13.24,26.53,26.49c2.71,2.69,5.9,3.6,8.79.63s2.23-6-.62-8.8c-.71-.69-1.39-1.43-2.1-2.14l-38.15-38.2c-.94-.94-2.54-1.84-2.65-2.88-.24-2.36-.55-5.46.71-7,.93-1.12,5-1.15,6.45-.07,3.72,2.73,6.8,6.34,10.1,9.64q11.86,11.82,23.68,23.69c2.81,2.83,5.79,4.84,9.53,1.72,2.95-2.47,2.43-6.16-1.33-9.93q-22.57-22.65-45.22-45.25c-2.35-2.35-4.64-4.72-2.42-8.2s5.34-2.52,8.49-1.49c6.17,2,12.39,3.9,18.57,5.91,3.69,1.2,7.23,1.33,8.82-2.87s-.87-6.54-4.63-8q-18.18-7-36.33-14.09a46.12,46.12,0,0,1-6.4-2.77c-8.2-4.71-17-6.38-26.39-6.27a12.83,12.83,0,0,1-8.35-3C76.42,41,62.9,27.2,49.22,13.54c-2.68-2.67-4.16-5.64-1.14-8.66s6-1.51,8.64,1.17c12.33,12.42,24.76,24.73,37,37.2,2.49,2.53,5.1,3.41,8.67,3.86a103.17,103.17,0,0,1,21.78,4.72c13,4.64,25.62,10.32,38.49,15.31a8,8,0,0,0,5.9-.44c8.39-4.56,15.28-3.83,22.21,3,8.89,8.78,17.68,17.67,26.54,26.49C218.46,97.31,219.68,98.32,221.5,100Z"/><path class="cls-1" d="M82.14,197.77a48.61,48.61,0,0,1-3,5.22c-5.25,6.66-10.61,13.24-15.9,19.87-2.28,2.86-5.09,5-8.48,2.4-3.65-2.76-2.25-6.07.22-9.1C60.6,209.2,66.05,202,72,195.33c1.29-1.46,4.39-2.06,6.5-1.78C79.84,193.72,80.89,196.22,82.14,197.77Z"/><path class="cls-1" d="M169.11,39.79c.81-2,1.15-3.14,1.67-4.17,3.95-7.88,8-15.73,11.91-23.61,1.58-3.15,3.81-5.46,7.48-3.72,3.87,1.84,3.63,5,1.86,8.45-4.19,8.13-8.05,16.45-12.57,24.39-1,1.72-4.24,3-6.36,2.91C171.61,44,170.28,41.13,169.11,39.79Z"/><path class="cls-1" d="M19,168.1c-1.1-1.29-3.81-3.08-3.85-4.91s2.17-5.21,4-5.65a122.47,122.47,0,0,1,20.59-3.28c1.78-.13,4.79,2.44,5.34,4.33.41,1.4-1.9,5-3.55,5.38C34.59,165.71,27.49,166.63,19,168.1Z"/><path class="cls-1" d="M237.32,56.51c1.69,1.54,4.18,2.76,4.6,4.48s-.71,5.1-2.09,5.74a174.69,174.69,0,0,1-20.84,8c-1.45.46-4.5-1.34-5.4-2.91-.73-1.28.07-5,1.2-5.53C221.9,62.83,229.3,59.92,237.32,56.51Z"/><path class="cls-1" d="M134.1,25.2c-1.36,1.36-2.7,3.8-4.42,4.11s-5.2-1-5.65-2.36a177.81,177.81,0,0,1-5.9-22c-.29-1.41,2-4.43,3.63-4.85s5.17,1,5.66,2.35C130,9.59,131.78,17,134.1,25.2Z"/><path class="cls-1" d="M124.78,233.06c0,3.14.6,6.45-.2,9.37-.56,2-2.94,4.86-4.66,5s-4.87-2.56-5.13-4.35a185.39,185.39,0,0,1-1.45-20.29c-.11-3.17,1.48-5.54,4.91-5.72,3.74-.19,5.3,2.22,5.55,5.61s.35,6.94.51,10.42Z"/></g></g></svg>