<svg xmlns="http://www.w3.org/2000/svg" viewBox="0 0 237.03 198.13"><defs><style>.cls-1{fill:#032f24;}</style></defs><g id="Layer_2" data-name="Layer 2"><g id="Layer_1-2" data-name="Layer 1"><path class="cls-1" d="M26.42,171.09c-3.65,0-6.44.08-9.23,0-9.56-.31-16.88-6.76-17-16.19q-.44-42.24,0-84.48C.29,60.56,7.78,54.06,18,54c23.16-.08,46.32,0,69.49,0,6.38,0,6.38,0,6.38-6.59,0-10,0-20,0-30C94,6.88,100.55.1,111.05.07q54.24-.13,108.48,0C230.32.1,236.94,6.84,237,17.66c.08,25.33,0,50.66,0,76,0,12.19-6.29,18.43-18.47,18.51-2,0-3.91,0-6.55,0,.9,5.58,1.68,10.46,2.47,15.33.24,1.48.93,3,.67,4.42-.39,2.11-.88,5-2.34,5.89s-4.62.4-6.26-.67c-9.36-6.08-18.74-12.18-27.6-18.95A28.25,28.25,0,0,0,159.13,112c-9.5.54-9.52.13-9.52,9.65,0,10.33.08,20.66-.05,31-.15,12-6.77,18.41-18.78,18.44-18.33,0-36.66.13-55-.08a17.72,17.72,0,0,0-11,3.55c-10.6,7.51-21.28,14.92-32.16,22-2,1.32-5.6,2.06-7.48,1.12-1.47-.74-2.14-4.58-1.89-6.91C23.89,184.43,25.23,178.12,26.42,171.09Zm8.47,11.38c2.32-1.47,3.69-2.27,5-3.16,7.57-5.17,15-10.56,22.76-15.42a18.61,18.61,0,0,1,9.18-2.82c19.67-.25,39.34-.11,59-.15,6.1,0,8.55-2.4,8.56-8.45q.08-40,0-80c0-5.81-2.38-8.07-8.29-8.22-4.5-.11-9,0-13.5,0q-49,0-98,0c-6.87,0-9.35,2.3-9.37,8.74q-.06,39.75,0,79.5c0,6,2.57,8.35,8.64,8.44,3.67.06,7.34,0,11,0,6.71.06,8.24,1.88,7.2,8.62C36.46,173.48,35.75,177.38,34.89,182.47ZM104.1,53.1c1,.46,1.25.72,1.54.72l25,.18c12.24.08,18.88,6.63,19,18.79.06,8.17.19,16.34-.05,24.49-.11,3.79,1.22,5.31,4.89,4.72,13.61-2.16,25.06,2.3,35.21,11.19a86.24,86.24,0,0,0,9,6.3c1.16.78,2.45,1.38,4.51,2.53-.83-5.06-1.64-9.11-2.12-13.2-.54-4.48,1.3-6.57,5.81-6.75,3.5-.15,7,0,10.5,0,7.67,0,9.51-1.83,9.52-9.33q0-36.24,0-72.48c0-8.26-1.73-10-9.9-10q-50,0-100,0c-2.16,0-4.34-.13-6.49.07-3.81.34-6.32,2.4-6.35,6.35C104,28.76,104.1,40.91,104.1,53.1Z"/><path class="cls-1" d="M74.66,117.71c-12.15,0-24.31,0-36.47,0-1.64,0-3.71.24-4.83-.61-1.49-1.14-3-3.23-3.07-4.94,0-1.42,1.88-3.3,3.38-4.17,1.29-.75,3.24-.44,4.9-.44q36,0,71.94,0H112c3.69,0,7.6.22,7.63,5s-3.74,5.23-7.51,5.22Q93.4,117.69,74.66,117.71Z"/><path class="cls-1" d="M65.24,99.86q-14.46,0-28.92,0c-3.58,0-6.4-1.22-6.23-5.38.17-3.88,2.95-4.74,6.3-4.73,13.3,0,26.6,0,39.9,0,6.15,0,12.3,0,18.45,0,3.38,0,6.15,1,6.25,4.81.12,4.1-2.75,5.29-6.33,5.3Z"/><path class="cls-1" d="M65.39,135.43c-9.47,0-18.94,0-28.41,0-3.69,0-6.92-.76-6.88-5.23,0-4.23,3.29-5,6.68-5q28.66,0,57.34,0c3.62,0,7,.75,6.87,5.25s-3.61,4.93-7.18,4.92Q79.61,135.41,65.39,135.43Z"/><path class="cls-1" d="M174.37,44.24c-9,0-18,0-27,0-3.64,0-7.08-.62-7.11-5s3.22-5.23,7-5.22q27,.09,54,0c3.62,0,7,.49,7,5.06s-3.24,5.19-6.9,5.18C192.36,44.21,183.37,44.24,174.37,44.24Z"/><path class="cls-1" d="M182,51.05c6.65,0,13.29,0,19.94,0,3.59,0,6.37,1,6.32,5.22,0,3.91-2.77,5-6.09,5q-20.43,0-40.87,0c-3.44,0-6-1.56-5.9-5.25s2.7-5,6.17-5C168.41,51.08,175.22,51.05,182,51.05Z"/><path class="cls-1" d="M186.52,68c5.32,0,10.65,0,16,0,3.47,0,5.89,1.44,5.81,5.28-.08,3.6-2.45,4.85-5.68,4.86q-16.23,0-32.45,0c-3.32,0-5.56-1.55-5.57-5,0-3.74,2.45-5.18,5.94-5.18Z"/></g></g></svg>