<svg xmlns="http://www.w3.org/2000/svg" viewBox="0 0 353.92 313.24"><defs><style>.cls-1{fill:#032f24;}</style></defs><g id="Layer_2" data-name="Layer 2"><g id="Layer_1-2" data-name="Layer 1"><path class="cls-1" d="M156.91,313.1c-3.33,0-6.67.15-10-.05-2.54-.15-5,.6-7.67-.81-2-1.07-4.62.21-7.08-1-1.84-.88-4.34-.69-6.53-1a103.5,103.5,0,0,1-17.22-4.39A124.44,124.44,0,0,1,85,296.05c-7.07-4-14.21-7.92-20.63-13-4-3.21-7.84-6.79-12-9.78-6.2-4.49-10.64-10.52-15.54-16.07-6.22-7-11.19-15.09-16-23.27-6.35-10.78-10.47-22.19-13.76-31.81C5,196.06,3.25,189.82,3,183.31c-2.22-2.16-.52-5.17-1.75-7.79-1.09-2.32.27-5.67-.37-8.35a42.51,42.51,0,0,1-.83-11.61C.14,153,.81,150.51,1,148s-.16-5.35.1-8c.22-2.2,1.13-4.27,1-6.6s1.56-4.24.94-6.58c2.19-1.57-.25-4.62,2-6.18.2-6.86,3.43-12.92,5.44-19.25a108.05,108.05,0,0,1,7.73-17.78,228.45,228.45,0,0,1,13.4-21.43,78.61,78.61,0,0,1,7.38-8.45c1.57-1.72,4-3.05,4.74-5,.84-2.3,2.84-3.12,4.16-4.63a66.1,66.1,0,0,1,10.46-9.59,148.11,148.11,0,0,1,12.75-9c6.67-4,13.11-8.31,20.29-11.39,3.82-1.64,7.52-3.62,11.45-4.91s7.88-3,11.86-3.88c5.53-1.16,10.93-3.29,16.71-3.2C144.43-1.25,157.78.51,171,.15c1.85,0,3.72.67,5.59.93,1.71.25,3.36.08,5.15.85s4.35.68,6.54,1a90.22,90.22,0,0,1,17.24,4.38c8,2.81,16,5.6,23.43,9.79,7.08,4,14.14,8,20.64,13,4.12,3.15,8.32,6.13,11.87,9.94.5.53,1.48.6,2,1.12.84.83,2.11,1.9,2,2.78-.08,1.14-1.87.83-2.81,1.27-5.59,2.62-11.06,5.49-16.57,8.29-.83.43-1.59,1-2.42,1.4-3.33,1.7-3.19,1.49-6.21-.69-4.44-3.21-8.92-6.36-13.63-9.23a136.63,136.63,0,0,0-14.38-7.62A89.15,89.15,0,0,0,191.12,31c-4.91-1-9.79-2.19-14.74-3.07-2.91-.52-5.88-.16-8.59-.92-5.7-1.6-11.42-.61-17.12-.83a30,30,0,0,0-6.08.94c-2,.37-4-.34-6.19.8-1.9,1-4.62.66-7,1.06a114.87,114.87,0,0,0-21.93,6.28,116.85,116.85,0,0,0-14.62,6.92,127.83,127.83,0,0,0-15.42,9.91,151.8,151.8,0,0,0-17.5,15.62A132.26,132.26,0,0,0,47,87c-4.19,6.35-7.31,13.29-10.42,20.18a92.74,92.74,0,0,0-4.72,14.56,90,90,0,0,1-2.68,9.86,24.21,24.21,0,0,0-1.11,9c.07,3.6-1.56,6.92-1.17,10.59a105.94,105.94,0,0,1,.09,11c0,4.88,1.7,9.65,1,14.58,1.42,3,1.2,6.38,2.5,9.46,1.13,2.68,1.48,5.7,2.25,8.54.83,3,2.53,5.74,3.05,8.74.56,3.21,2.52,5.65,3.65,8.51,3.35,8.46,8.85,15.69,13.55,23.38a4.77,4.77,0,0,0,.58.76c5.65,6,11,12.27,17,17.88A104.28,104.28,0,0,0,87,266.41c3.39,2.1,6.73,4.37,10.55,5.86s6.89,4.19,11,4.85c6.16,3.88,13.51,4.33,20.14,6.87,2.61,1,5.69.73,8.54,1.12,1.71.24,3.4.65,5.09,1s3.58-.7,5.18.85c.44.42,1.58.14,2.41.14,4.33,0,8.66.11,13,0a51.31,51.31,0,0,0,6.59-1c2-.34,4,.25,6.18-.78,1.94-.91,4.63-.72,7-1.11a108.11,108.11,0,0,0,21.93-6.27c4.86-1.92,9.47-4.49,14.16-6.84a124.06,124.06,0,0,0,15.88-10c7.13-5.07,13.23-11.19,19.22-17.44a86.65,86.65,0,0,0,7.1-9c2.22-3,4-6.44,6.45-9.29s3.76-6.51,5.42-9.8a98.67,98.67,0,0,0,4.4-9.67c1.79-4.77,3.47-9.56,5-14.41a43.44,43.44,0,0,0,1.81-7.25c.19-1.38.68-2.72,1-4.09a44.74,44.74,0,0,0,1-5.09c.17-1.65-.33-3.43.1-5,1.84-6.48.5-13.08,1-19.6a23.72,23.72,0,0,0-1-7.1c-.54-2.3.63-4.9-1.06-7.07.37-5.51-2.26-10.44-3.06-15.74a21,21,0,0,0-2.2-7.06c-1.48-2.61-.63-4.26,1.26-5.87s3.73-3.06,5.59-4.61,3.07-3.21,5.18-4.35c2.37-1.27,4.25-3.44,6.37-5.17.52-.42,1.2-1,1.75-.89s.89.89,1.09,1.46c2.14,6.28,4.36,12.54,6.29,18.88,1.14,3.73,2.72,7.32,2.85,11.37.06,2.13,1,4.28,1.12,6.5,0,.41.69.77.73,1.18.38,3.69.76,7.38,1,11.08.39,5.69.77,11.39,1,17.09.2,4.88-1.73,9.64-1,14.58-1.56,4-1.39,8.34-2.51,12.45-1.07,3.92-1.47,8-2.55,12a81,81,0,0,1-4.33,12.68c-1.37,3-2,6.17-3.58,9-1.49,2.7-2.49,5.67-4.07,8.3-4.2,7-8,14.19-13.05,20.62-3.21,4-6.52,8-9.82,12a74.7,74.7,0,0,1-7.58,8.29c-7.54,6.7-15.09,13.49-23.77,18.66-6.22,3.71-12.26,7.87-19.14,10.47-2.87,1.08-5.51,2.77-8.37,3.91a53,53,0,0,1-8.39,2.64c-3,.67-5.9,1.92-9,2.57-4.75,1-9.38,2.45-14.28,3-2,.21-4,1-6.1.88s-4.18,1.48-6.59,1.07a40.11,40.11,0,0,0-6.49-.07Z"/><path class="cls-1" d="M75,144.19c.42-1.8-.65-4.09.64-6.32,1-1.77.38-3.92,1.21-6,2.85-7,8.31-13.43,16.44-13.87,2-.1,4-1.4,6.09-.89,5.45,1.31,11.14,1.73,16.33,4a100.52,100.52,0,0,1,14.39,7.53,101.77,101.77,0,0,1,20.26,17.39,43,43,0,0,1,3.92,5.86c.42.64.65,1.41,1.09,2,1.25,1.81,2.08,1.75,3.51-.26,4.14-5.78,8.16-11.65,12.43-17.33,1.74-2.32,3.78-4.44,5.7-6.61a285.44,285.44,0,0,1,20.18-21.11c4.94-4.53,10.25-8.75,15.5-13a188.33,188.33,0,0,1,15.8-11.5c5.64-3.66,11.44-7.09,16.93-11,2.45.56,3.53-1.87,5.45-2.56s3.37-2.37,5.24-3c3.38-1.18,6.19-3.5,9.64-4.5,3.27-.95,6-3,9.3-4.13a97.88,97.88,0,0,0,10.71-4.27C290.7,52.35,296,51.17,301,49.17s10.34-3.17,15.48-4.85c2.91-.94,6.09-1.38,9.09-2.24,5.24-1.51,10.71-2,15.91-3.82,2.66-.92,5.66-.85,8.52-1.13a6.51,6.51,0,0,1,2,.47A7,7,0,0,1,350.58,39c-4.1,2.16-8.29,4.14-12.33,6.41-5,2.83-10,5.76-14.84,8.85C319,57,315,60.31,310.51,63c-2.6,1.55-4.74,3.67-7.36,5.14a45.08,45.08,0,0,0-6.91,5.12c-2.79,2.36-5.84,4.43-8.72,6.71s-6,4.19-8.66,6.79a180.23,180.23,0,0,1-14,12.08,74.75,74.75,0,0,0-7.1,7c-5.92,6.2-12.11,12.18-17.6,18.74-5,6-10.05,12-14.77,18.29-3.53,4.71-6.95,9.57-10.64,14.2-2.78,3.51-5,7.54-7.54,11.33-3.62,5.48-7.4,10.89-10.51,16.66-1.84,3.41-3.82,6.74-5.71,10.12C185,206,179.45,217,174,228.13c-1.77,3.6-3.72,7.12-5.28,10.81-1.93,4.53-4.6,8.75-5.77,13.62a9.86,9.86,0,0,1-1.71,2.78,4.69,4.69,0,0,1-.7.71c-.18-.23-.45-.43-.53-.69-1.42-5.07-3.77-9.78-6.05-14.49-6.11-12.61-13.47-24.52-21.08-36.25-3.38-5.22-8-9.65-11.5-14.77C118.05,185,113,181.71,110,176.67c-1.61-.25-1.84-1.84-2.75-2.76s-2.81-1.33-2.94-2.18c-.3-1.95-2.21-1.55-3-2.71a13.64,13.64,0,0,0-2.79-2.84c-1.09-.91-2.51-1.49-3.43-2.52-4.09-4.64-9.95-6.78-14.69-10.5-1.53-1.21-4.31-1.27-5.22-2.68S75,146.61,75,144.19Z"/><path class="cls-1" d="M353,36l.89.49a12.76,12.76,0,0,1-1.45.56c-.11,0-.31-.28-.46-.44Z"/></g></g></svg>