<svg xmlns="http://www.w3.org/2000/svg" viewBox="0 0 236.31 236.01"><defs><style>.cls-1{fill:#032f24;}</style></defs><g id="Layer_2" data-name="Layer 2"><g id="Layer_1-2" data-name="Layer 1"><path class="cls-1" d="M215.28,165.89C227,172,234.35,181.4,235.61,194.07c1.16,11.71.59,23.62.36,35.44-.08,4.32-3.61,6.48-9.05,6.48q-35,0-70,0c-.5,0-1,0-1.49,0-4.78-.24-7.67-2.65-7.73-7.37-.14-11.32-.43-22.68.31-34,.73-11.12,6.79-19.61,15.84-26,1.35-.94,2.77-1.79,4.54-2.93-5.47-8.33-8-17.21-4.81-26.92a29.63,29.63,0,0,1,48.54-12.73C222.86,135.93,224.15,150.74,215.28,165.89Zm5.92,55c0-8.07.2-15.55,0-23-.3-9.14-6.25-18.06-15.14-19.38a98.89,98.89,0,0,0-28.54.09c-7.37,1.08-12.9,7.13-14.05,14.63-1.4,9.05-1.08,18.35-1.5,27.67ZM192,162.08a14.57,14.57,0,1,0-.43-29.14,14.57,14.57,0,1,0,.43,29.14Z"/><path class="cls-1" d="M20.79,47.92C11.9,31.1,13.56,16.74,25.33,7,36.58-2.22,51.68-2.36,63,6.71c12.06,9.64,13.81,23.59,5,41.05,2.27,1.58,4.7,3,6.85,4.81,8.85,7.32,13.53,16.75,13.7,28.25q.21,14.24,0,28.48c-.08,6.12-2.81,8.68-9,8.69q-35.23,0-70.45,0c-6.21,0-9-2.66-9-8.68-.07-10-.41-20,.08-30C1,65,8.42,54.71,20.79,47.92Zm53.15,55c0-8.08.37-15.56-.09-23C73.23,69.76,66.69,61.44,56.66,60A87.86,87.86,0,0,0,31,60.26,17.79,17.79,0,0,0,15.77,76.13c-1.09,8.75-.25,17.75-.25,26.74ZM59.13,29.76A14.71,14.71,0,0,0,44.75,14.94,14.41,14.41,0,0,0,29.72,29,14.4,14.4,0,0,0,44.26,44.08,14.68,14.68,0,0,0,59.13,29.76Z"/><path class="cls-1" d="M184.38,44.31H129.6c.59,1,1,1.67,1.35,2.3,2.82,4.37,2.56,7.94-.79,10.63s-6.85,2.38-10.64-1.28q-6.83-6.59-13.44-13.42c-3.78-3.92-3.78-7.39,0-11.34,4-4.21,8.2-8.29,12.36-12.38,4.47-4.38,8.3-5.07,11.8-2.22s3.49,6.31-.48,12.58c2,.11,3.71.28,5.4.29,18,0,36,0,54,0,7.83,0,10,2.29,10,10.16q0,27,0,54c0,6.2-2.4,9.35-7.09,9.48-4.91.13-7.68-3.19-7.7-9.5,0-14.5,0-29,0-43.49Z"/><path class="cls-1" d="M51.92,191.65h54.77c-.9-1.4-1.68-2.5-2.33-3.67a6.67,6.67,0,0,1,1.22-8.67c2.67-2.59,6.16-3.54,9-1a235.29,235.29,0,0,1,17,16.88c2.72,3,1.58,6.61-1.19,9.42-4.44,4.51-8.9,9-13.45,13.41-3.82,3.68-7.86,4-11.1,1.2s-3.25-6.1-.28-10.65c.25-.38.42-.83,1-2.07H100.9q-26.75,0-53.49,0c-8.19,0-10.29-2.15-10.29-10.38q0-27,0-54c0-6.07,2.56-9.26,7.29-9.25s7.46,3.23,7.48,9.24c.06,14.49,0,29,0,43.49Z"/></g></g></svg>