<svg xmlns="http://www.w3.org/2000/svg" viewBox="0 0 231.9 184.14"><defs><style>.cls-1{fill:#032f24;}</style></defs><g id="Layer_2" data-name="Layer 2"><g id="Layer_1-2" data-name="Layer 1"><path class="cls-1" d="M115.82,184.12q-40.75,0-81.5,0C13.39,184.08,0,170.63,0,149.57Q0,92.32,0,35.07C0,13.3,13.18,0,34.81,0Q116.56,0,198.31,0c19.63,0,33.49,13.71,33.53,33.29q.12,59,0,118c0,18.86-14.07,32.75-33,32.8C171.15,184.18,143.48,184.12,115.82,184.12ZM214.47,31.81l-1.22-.59c-1.42,1.33-2.87,2.63-4.25,4l-68.21,68.23c-15.33,15.34-34.48,15.25-49.85-.15Q56.88,69.16,22.72,35.09c-1.36-1.36-2.8-2.64-5-4.67-.17,2.72-.36,4.33-.36,5.94q0,55.76,0,111.49c0,13.65,5.44,19,19.11,19h159c13.36,0,18.95-5.45,19-18.68q0-55.24,0-110.48ZM30.29,17.6c2,2.15,3.19,3.46,4.44,4.71Q43.37,31,52,39.62,78.2,65.75,104.37,91.86c7.37,7.32,15.43,7.3,22.91.25.85-.8,1.68-1.61,2.51-2.43q34.1-34.1,68.17-68.2c1-1,1.82-2.12,3.3-3.88Z"/></g></g></svg>