<svg xmlns="http://www.w3.org/2000/svg" viewBox="0 0 687 163.75"><defs><style>.cls-1{fill:#032437;}.cls-2{fill:#05748f;}</style></defs><g id="Layer_2" data-name="Layer 2"><g id="Layer_1-2" data-name="Layer 1"><path class="cls-1" d="M107.88,58.21v93.44a7,7,0,0,1-7,7H74.48a7,7,0,0,1-7-7V67a3.28,3.28,0,0,0-3.38-3.16H56.42a2.5,2.5,0,0,1-2.48-2.48V53.92a3.09,3.09,0,0,0-3.16-3.16h-7a3.28,3.28,0,0,0-3.38,3.16v97.73a7,7,0,0,1-7,7H7a7,7,0,0,1-7-7V40.83a6.94,6.94,0,0,1,6.77-6.77h77a7.52,7.52,0,0,1,7.45,7.45v9.25h9.25A7.51,7.51,0,0,1,107.88,58.21Z"/><path class="cls-1" d="M232.35,59.58V107a8.52,8.52,0,0,1-8.35,8.57H168.48a3.52,3.52,0,0,0-3.61,3.39v9a3.47,3.47,0,0,0,3.39,3.38h7a3.09,3.09,0,0,1,3.16,3.16v6.55a3.28,3.28,0,0,0,3.39,3.16h6.77a3.28,3.28,0,0,0,3.38-3.16v-9.71a7.08,7.08,0,0,1,7-7.22h26.18a7.13,7.13,0,0,1,7.22,7.22v6.32a6.55,6.55,0,0,1-6.54,6.55H215.65v10.15a6.55,6.55,0,0,1-6.54,6.55H147.72a6.56,6.56,0,0,1-6.55-6.55V144.22H131a6.56,6.56,0,0,1-6.55-6.55V59.58A6.55,6.55,0,0,1,131,53h10.15V42.88a6.55,6.55,0,0,1,6.55-6.54h61.39a6.54,6.54,0,0,1,6.54,6.54V53h10.16A6.54,6.54,0,0,1,232.35,59.58ZM168.48,85.76h20.09A3.32,3.32,0,0,0,192,82.38V69.29a3.28,3.28,0,0,0-3.38-3.16h-7a3.28,3.28,0,0,1-3.16-3.39V56.2A3.08,3.08,0,0,0,175.25,53h-7a3.28,3.28,0,0,0-3.39,3.16V82.38A3.38,3.38,0,0,0,168.48,85.76Z"/><path class="cls-1" d="M298.54,66.13V128a3.47,3.47,0,0,0,3.39,3.38h19.41a6.27,6.27,0,0,1,6.32,6.1v17.37a6.27,6.27,0,0,1-6.32,6.1H280.49a5.64,5.64,0,0,1-5.87-5.64V144.22H263.79a5.79,5.79,0,0,1-5.87-5.65l.22-72.44H244.38a6,6,0,0,1-5.87-5.87V42.2a6,6,0,0,1,5.87-5.86h13.76V19.86a3.28,3.28,0,0,1,3.16-3.38H273a1.75,1.75,0,0,0,1.81-1.58V3.16A3.08,3.08,0,0,1,278,0h17.16a3.47,3.47,0,0,1,3.38,3.39v33h23.25a6,6,0,0,1,5.87,5.86V60.26a6,6,0,0,1-5.87,5.87Z"/><path class="cls-2" d="M517.62,7.65a14.89,14.89,0,0,0-5.27.72,7.61,7.61,0,0,0-4.71,4.75,8.3,8.3,0,0,0-.08,5V151.32a10.52,10.52,0,0,0,21,0V18.16a10.44,10.44,0,0,0-11-10.51Z"/><path class="cls-2" d="M683.69,143.92l-60-59.18,60.21-59.37a10.18,10.18,0,0,0,3-7.89,10.55,10.55,0,0,0-3-6.94,10.62,10.62,0,0,0-15,0h0l0,0L609.7,70.76,550.56,10.57v0h0a10.51,10.51,0,0,0-18,6.94,10.12,10.12,0,0,0,3,7.86l60.24,59.4-60,59.15a10.47,10.47,0,1,0,14.78,14.83l59.17-60,59.15,60a10.37,10.37,0,0,0,14.84,0C688.11,154.3,688.11,148.35,683.69,143.92Z"/><path class="cls-2" d="M494.15,9.34H359.07c-3.08,0-5.43,1-7,2.85a8.36,8.36,0,0,0-1.94,5.41,12,12,0,0,0,.64,3.81.3.3,0,0,1,0,.11V153.24a10.52,10.52,0,0,0,21,0V103.72H479.26a10.52,10.52,0,0,0,0-21H371.84V30.37H494.15a10.62,10.62,0,0,0,10.52-10.52A10.62,10.62,0,0,0,494.15,9.34Z"/></g></g></svg>