<svg xmlns="http://www.w3.org/2000/svg" viewBox="0 0 173.14 176.52"><defs><style>.cls-1{fill:#032f24;}</style></defs><g id="Layer_2" data-name="Layer 2"><g id="Layer_1-2" data-name="Layer 1"><path class="cls-1" d="M173.08,88.1c0,14.16-.1,28.31.06,42.47,0,4.18-1.38,6.78-5.26,8.6Q129.64,157,91.57,175.23a10.43,10.43,0,0,1-9.91.07Q43.14,156.86,4.48,138.74a6.91,6.91,0,0,1-4.44-7q0-43.21,0-86.44c0-3.79,1.62-6.14,5.06-7.75Q43.48,19.48,81.79,1.21a10,10,0,0,1,9.44-.05q38.52,18.43,77.19,36.55c3.57,1.68,4.73,4.21,4.71,7.92C173,59.79,173.09,73.94,173.08,88.1ZM10.82,51.87a22.1,22.1,0,0,0-.44,2.89c0,24,0,48-.1,72,0,3.18,1.63,4.27,4.05,5.41q31.22,14.67,62.35,29.47c1.29.61,2.67,1,4.37,1.68a30.4,30.4,0,0,0,.42-3.36c0-23.83,0-47.66.1-71.49,0-3.5-2-4.5-4.52-5.67q-31-14.62-61.9-29.28C13.86,52.9,12.48,52.49,10.82,51.87Zm151.57-.41c-6.53,3.07-12.59,6.1-18.8,8.79-2.87,1.25-3.86,3-3.8,6.08.19,11.16.14,22.33,0,33.5,0,1.5-.4,3.86-1.37,4.37-7.13,3.72-14.45,7.07-22.76,11V73.53c-7.16,3.39-13.37,6.54-19.77,9.27-3.47,1.48-4.43,3.63-4.4,7.27.16,22.5.08,45,.07,67.5V163a9,9,0,0,0,2.18-.17c22.14-10.46,44.31-20.87,66.35-31.55,1.37-.66,2.49-3.35,2.51-5.11.17-23.66.13-47.33.12-71C162.76,54.18,162.57,53.21,162.39,51.46ZM17.91,42.78A17.93,17.93,0,0,0,20,44.47Q52,59.69,84.08,74.85c1,.46,2.44,1,3.28.61,6.9-3.08,13.71-6.36,21.94-10.25-1.71-.72-2.17-.9-2.62-1.12Q74.4,48.8,42.11,33.55a4.58,4.58,0,0,0-3.29-.45C32,36.11,25.33,39.32,17.91,42.78ZM64.73,20.67a13.38,13.38,0,0,0,1.84,1.68q32,15.21,64.06,30.32c1.13.53,2.79,1,3.79.52,6.78-3,13.45-6.21,20.47-9.51-.87-1-1.11-1.44-1.49-1.62q-32.46-15.42-65-30.75a4.4,4.4,0,0,0-3.28-.17C78.51,14.12,71.94,17.28,64.73,20.67Z"/></g></g></svg>