<svg xmlns="http://www.w3.org/2000/svg" viewBox="0 0 232.29 264.92"><defs><style>.cls-1{fill:#032f24;}</style></defs><g id="Layer_2" data-name="Layer 2"><g id="Layer_1-2" data-name="Layer 1"><path class="cls-1" d="M231.92,231.13c-6.14-59.41-11.83-118.87-17.85-178.29-1.91-17.75-24-11.48-36.41-12.57-7.85,0-23.95,0-23.95,0s-2-41-43-40.27S70.93,40.85,70.93,40.85s-38.18.27-46.65,5.56C17.75,50.5,12.6,64.06,10.2,96.06c-3.54,47.1-7,94.2-10.14,141.33C-.61,248,4.43,253.3,14.92,254.14c55.35,2.47,111.41,13.19,166.54,10.29,12.37-3.56,24.51-7.9,36.75-11.92C231.07,248.3,233.33,244.65,231.92,231.13ZM110.69,15.77c23.65,0,23.67,25.1,23.67,25.1H87S89.28,15.77,110.69,15.77Zm28,230.51-99-8.42c-9.75-.83-17-9.93-16.3-20.36L32.2,80.36c.7-9.91,1.06-17.6,25.07-17.6h82.85c9.42,0,17.2,7.87,17.73,17.94l0,145.58C158.42,237.77,149.41,247.2,138.68,246.28Zm67.55-11.21c-8.37-3.64-19.57,10.9-27.48,14.6l-1.09-1.22c5.85-8.21,19.52-14.46,19.53-25.18-4.17-50.44-8.85-100.85-11.61-151.38l1.26-.16c7.65,50.89,10.44,102.44,17.08,153.46,3.12,7.75,13.19,9.26,18.77,15.52C217.19,238.85,211.63,237.16,206.23,235.07Z"/></g></g></svg>