<svg xmlns="http://www.w3.org/2000/svg" viewBox="0 0 393.39 421.49"><defs><style>.cls-1{fill:#032f24;}</style></defs><g id="Layer_2" data-name="Layer 2"><g id="Layer_1-2" data-name="Layer 1"><path class="cls-1" d="M273.7,421.49c-36.07-.23-65.95-11.07-94.09-27.57-33-19.34-60.58-45.1-86.13-73.17-29.17-32-55-66.41-73.44-105.92C8.43,189.86.4,163.77,0,136.07-.53,95.59,10.65,59.43,42.28,31.86c9.54-8.31,19.48-16.17,29.16-24.31C84-3,100-1.68,111.72,6.52a66.39,66.39,0,0,1,13.39,11.9,271,271,0,0,1,37.14,59,61.23,61.23,0,0,1,5.54,27.15c-.3,13.49-5.64,24.53-15.69,33.26-8.54,7.43-17.2,14.76-26.15,21.69-8.55,6.62-11.11,14.85-8.7,25.14,3.19,13.6,10.27,25.24,18.26,36.34,18,25,37.66,48.46,62.94,66.45,6.23,4.44,13.69,7.43,21,10.07,6.53,2.37,12.8.3,18-4.43,9-8.19,17.89-16.49,27-24.53,13.55-12,29.19-14.75,46.14-9.2a69.37,69.37,0,0,1,17.55,8.23c18.87,12.91,36.41,27.5,51.77,44.52A60.85,60.85,0,0,1,388.09,324c7.93,14.74,7.27,29.45-4.1,41.73-25.1,27.14-53.9,48.68-91.86,54.23C285.07,421,277.88,421.15,273.7,421.49Zm-3-19.28c41.31.84,71.55-20.67,98.6-48.63a17.8,17.8,0,0,0,1.43-2.05c3.8-5.22,4.08-10.83,1.38-16.5a35.83,35.83,0,0,0-5.25-8.45A249.51,249.51,0,0,0,314.67,282a40.89,40.89,0,0,0-8.13-3.77c-11.25-4.09-21.52-2.78-30.56,5.64q-13.17,12.27-26.61,24.24c-9.52,8.46-20.77,10.75-33.07,8.53-12.64-2.28-23.38-8.68-33.27-16.4-25.45-19.86-46.28-44-64.74-70.34-8.25-11.75-15.38-24.15-19.05-38.22-5-19.31-.76-35.42,15.62-47.86,8.48-6.44,16.49-13.52,24.6-20.43,6.33-5.39,10.13-12.38,9-20.66-1-7.3-2.2-15.17-5.73-21.42-9.24-16.33-19.5-32.11-30-47.68-3.15-4.67-8.11-8.35-12.8-11.69-5.37-3.83-11.18-3.79-16.57.71-9,7.47-18,14.77-26.94,22.31-28,23.72-37.71,55.12-37.16,90.47.44,28.56,9.61,54.91,22.43,80C61.86,255,89.3,289.23,120.06,320.94c22.71,23.41,47.22,44.6,76.08,60.27C219.43,393.85,244,402,270.74,402.21Z"/></g></g></svg>