<svg xmlns="http://www.w3.org/2000/svg" viewBox="0 0 340.92 341.83"><defs><style>.cls-1{fill:#009567;}</style></defs><g id="Layer_2" data-name="Layer 2"><g id="Layer_1-2" data-name="Layer 1"><path class="cls-1" d="M340.92,171.11c-.18,96.33-79.58,171.82-172.4,170.71C74.46,340.69-1.26,262.76,0,169.85,1.35,73.1,78.52-1.79,174.54,0,266.26,1.77,341.2,78.15,340.92,171.11ZM170,318.3c2.5,0,5,.14,7.49,0,3.49-.24,7-.65,10.43-1.09,33.66-4.33,62-19,85.49-43.47,2.47-2.57,2.41-4.39.61-7.25A126.29,126.29,0,0,0,225.39,221c-8.95-4.72-17.75-4.93-26.88-1.07a81.87,81.87,0,0,1-8.81,3.49c-15.77,4.63-31.25,3.86-46.29-3-8.28-3.75-16.68-4.81-25.09-.8C96.69,230,80,245.7,67.09,265.82c-2.43,3.81-1.67,5.94,1.14,8.81C96.2,303.17,130.18,317.59,170,318.3ZM109.36,144.64a61.42,61.42,0,0,0,61.25,61.5c33.27.12,60.89-27.73,60.88-61.39,0-33.39-27.36-61.07-60.52-61.25A61.38,61.38,0,0,0,109.36,144.64Z"/></g></g></svg>