<svg xmlns="http://www.w3.org/2000/svg" viewBox="0 0 220.32 164.08"><defs><style>.cls-1{fill:#032f24;}</style></defs><g id="Layer_2" data-name="Layer 2"><g id="Layer_1-2" data-name="Layer 1"><path class="cls-1" d="M109.18,164q-47.49,0-95,0c-6.22,0-10.64-2.39-13-8.38a7.78,7.78,0,0,1-.93-3.13c.06-2.49-.25-5,.11-7.48.25-1.67-1.62-4.51,1.2-4.82,1.61-.17,3.42-2.76,5.17-.26.74-1.18,1.4-.68,2.2,0,.12.1,1.23-.51,1.28-.86a33.15,33.15,0,0,0,.06-4q0-46.49,0-93A22.1,22.1,0,0,1,13,31.72c2.22-4.34,6.14-5.52,10.21-6.67a11.47,11.47,0,0,1,3,0H126.64a15,15,0,0,1,4,.1,3.06,3.06,0,0,1,1.57,2.15c.08.49-.88,1.54-1.51,1.67a19.53,19.53,0,0,1-4,.08h-99c-1.33,0-2.77-.3-4,.12-3.19,1.12-5.94,2.81-7.56,6.13a8,8,0,0,0-.9,3.63q0,49.5,0,99A7.67,7.67,0,0,0,16,140a11.51,11.51,0,0,1,1.67-.79,2.76,2.76,0,0,1,1.34,0c2.64.54,3.19.26,3.32-1.9.07-1.16,0-2.33,0-3.5q0-44.24,0-88.48c0-1.55-.17-3,.68-4.72,1.27-2.51,2.71-4,5.53-3.55,2.09.36,4-.77,6.21-.16s4.63.12,7,.12H90.2q20,0,40,0c.85,0,2.09-.53,2.12,1.18,0,1.51-.56,2.57-2.09,2.77a25.53,25.53,0,0,1-3.5,0q-47.23,0-94.48,0c-1.39,0-2.8-.47-4.25.64-1.77,1.36-1.71,3-1.71,4.84q0,41,0,82c0,2.66,0,5.33,0,8,0,1.17-.22,2.69,1.09,2.94,1,.18,2.3.71,2.92.44,2.35-1,4.45.56,6.73.2a49.2,49.2,0,0,1,7.49-.09H60a55,55,0,0,1,7.49.07c3.88.52,7.71,1.43,11.56,2.23.43.09.82.7,1.2.67,4.09-.3,7.95,1.24,12.09,1.14,11.32-.3,22.66-.16,34-.08,4.68,0,9.13-1,13.7-1.83,6.12-1.11,12.22-2.6,18.64-2.31,9.65.44,19.33.11,29,.11,1,0,2,.05,3,0,1.73-.1,2.51-.93,2.61-2.74.06-1,0-2,0-3V73.77c0-1.17,0-2.34,0-3.5-.08-1.72,1.17-1.22,2.05-1.24s2.1-.37,2,1.32c-.09,1.16,0,2.33,0,3.49v60.49c0,1,0,2,0,3A2.5,2.5,0,0,0,200,140a5.18,5.18,0,0,0,2.46-.07,3.65,3.65,0,0,0,1.77-2,13.44,13.44,0,0,0,.07-3.48v-60a18.44,18.44,0,0,1,.05-3.49,2.26,2.26,0,0,1,2.39-2,2.37,2.37,0,0,1,2.5,1.86,14.42,14.42,0,0,1,.06,3.48v60c0,1,0,2,0,3A2.48,2.48,0,0,0,212,140a15.21,15.21,0,0,0,2.94-.13c2.6-.42,4.29.6,4.35,2.88a54.52,54.52,0,0,1-.08,9.48c-.45,3.06-1.42,6.09-3.93,8.36-2.33,2.13-5.2,2.77-8.1,3.39a14.2,14.2,0,0,1-3,0Zm.72-5q48.24,0,96.47.05a7.6,7.6,0,0,0,5.69-2.13,6.87,6.87,0,0,0,2.25-6.13c-.1-1.5,0-3,0-4.5,0-2.25,0-2.28-2.51-2.28-10,0-20-.19-30,0s-20.1-1.08-30.08.91c-3,.59-6.13.4-9,1.25S137,148.32,134,148s-6,1.09-9.09,1.07c-6-.05-12,.12-18-.05s-11.81.89-17.58-1c-5.6,1-10.7-2-16.17-2-2-1.61-4.53-.36-6.54-1.11a19.86,19.86,0,0,0-7.13-.88H10a29.14,29.14,0,0,0-3.5.05c-.44.06-1.13.67-1.15,1.05a47.06,47.06,0,0,0,.06,8.48,5.4,5.4,0,0,0,3.35,4.65,11.38,11.38,0,0,0,4.68.74Q61.67,159,109.9,159Z"/><path class="cls-1" d="M178.68,0c8,0,16,0,24,0,7,0,12.67,2.73,16.1,9.06a12,12,0,0,1,1.45,5.37q.18,17.49,0,35A15.52,15.52,0,0,1,207.4,64.22a45.85,45.85,0,0,1-6.61.78c-6.33,0-12.68.24-19-.06-4.77-.23-9.05,1.27-13.5,2.48-8.52,2.31-16.61,6-25.35,7.65-.95.18-1.59,1.72-2.85.31s-.87-2.35,0-3.85c1.28-2.1,1.89-4.56,3.59-6.51,1.12-1.3.74-2.66-.66-3.74-4.45-3.44-6.76-7.88-6.77-13.1,0-10.5-.22-21,.08-31.5.21-7.45,3.89-13.74,11.7-15.78A21.78,21.78,0,0,1,153.68,0Zm.15,5c-9.32,0-18.65,0-28,0a10.08,10.08,0,0,0-9.54,9.63c-.06,11.83,0,23.65,0,35.48a7,7,0,0,0,2.24,5.56c1.68,1.5,3.28,3.43,5.28,4.1s1.67,1.73,1.3,2.85A18.8,18.8,0,0,1,148,66.76c-.46.72-1.2,1.34-.32,2a2.34,2.34,0,0,0,1.88.18c6.72-2.24,13.39-4.69,20.15-6.81,4.24-1.32,8.49-2.46,13.11-2.25,7.48.35,15,.11,22.48.08a8.16,8.16,0,0,0,2.84-.36,11.42,11.42,0,0,0,7.17-10.41c0-11.33-.13-22.66.09-34a9.52,9.52,0,0,0-2.18-6.59c-1.69-2-3.82-3.71-6.88-3.68C197.16,5.08,188,5,178.83,5Z"/><path class="cls-1" d="M109.93,93c-9.69.6-15-5-19.64-11.58-.26-3.75-3-7.26-1.74-11,1.2-3.46,1.5-7.21,4-10.32,3.51-4.29,7.54-7.27,13.09-8.08,1.38-.2,2.86-1.18,4-.87,3,.79,6.3.77,9.1,2.05,3.57,1.64,6.17,4.64,8.46,7.81a18.19,18.19,0,0,1,3.11,8.71c1.41,11-4.72,19.88-15.63,23.25C113.09,93.46,111.12,93,109.93,93Zm16.36-20.56A13.58,13.58,0,0,0,121.64,61a17.82,17.82,0,0,0-11.87-5.08c-8.86-.31-16.88,7.58-16.58,16.62A17.08,17.08,0,0,0,98,84a16.07,16.07,0,0,0,11.83,5A16.38,16.38,0,0,0,122,83.6C124.72,80.71,126.76,76.94,126.29,72.45Z"/><path class="cls-1" d="M76.29,121.25c.45-2.44-.2-5.24.86-8.22,2.92-8.17,8.72-12.35,15.76-15,4.13.42,8.3-.72,12.44,1.32,2.11,1,5.08.7,7.6.42a18,18,0,0,0,6.08-2.1c1-.54,1.59-.92,2.48,0a2.05,2.05,0,0,0,1.34.32c6.79,0,14.67,5.28,17.65,11.49,1.7,3.56,3.17,6.84,2.82,10.83-.18,2.15,0,4.33-.06,6.48,0,.82.64,2.1-1,2.22a2.48,2.48,0,0,1-2.9-2.45,36.13,36.13,0,0,1,0-5c.3-3.47-.9-6.53-2.46-9.47A18.84,18.84,0,0,0,125.78,103c-3.32-1.14-6.27-1.27-9.52.42a12.83,12.83,0,0,1-6.79,1.47,17.39,17.39,0,0,1-6.71-1.76,10.66,10.66,0,0,0-10.07,0c-7.49,3.67-9.77,7.06-12.09,14.26-.87,2.71-.36,5.9-.26,8.87A2.92,2.92,0,0,1,78.68,129a1.63,1.63,0,0,1-2.38-1.34C76.27,125.64,76.29,123.64,76.29,121.25Z"/><path class="cls-1" d="M93.29,122.26c0,1.5,0,3,0,4.5A2.31,2.31,0,0,1,91.17,129c-1.58.36-1.78-.76-2.19-1.8-1.31-3.33-.73-6.7-.31-10.06,0-.27.6-.51.59-.74-.06-1.05.33-1.4,1.4-1.45a2.29,2.29,0,0,1,2.55,1.8A34.5,34.5,0,0,1,93.29,122.26Z"/><path class="cls-1" d="M126.29,121.6c0-1.5-.1-3,0-4.5a2.24,2.24,0,0,1,2.26-2.1c1.22-.12,1.29.7,1.89,1.49,1.54,2.05.65,4.16.75,6.19.07,1.54.71,3.23-.7,4.71-.56.59-.26,1.89-1.78,1.66s-2.36-1-2.43-2.46C126.23,124.93,126.29,123.26,126.29,121.6Z"/><path class="cls-1" d="M109.27,156c-2.15,0-4.31-.1-6.45,0s-1.44-1.24-1.53-2.28,0-1.83,1.52-1.79c4.3.1,8.61.07,12.92,0a2.62,2.62,0,0,1,2.54,1.83,1.56,1.56,0,0,1-1.54,2.19C114.24,156,111.76,156,109.27,156Z"/><path class="cls-1" d="M178.41,36c-2.11.05-3-.75-3.12-2.75s.71-3.12,2.63-3.25c2.39-.16,3.37.71,3.37,3C181.29,35.11,180.47,36,178.41,36Z"/><path class="cls-1" d="M164.29,32.65A4.45,4.45,0,0,1,160.72,36c-1.67,0-2.59-1.31-2.43-3.42.14-1.88,1.17-2.68,3.28-2.58C163.41,30.11,164.41,31.08,164.29,32.65Z"/><path class="cls-1" d="M198.29,33.22c-.07,1.82-1,2.86-2.56,2.79-1.1,0-3.35-2-3.44-3s1.8-3,2.86-3C197.62,30.06,198.38,30.83,198.29,33.22Z"/></g></g></svg>