<svg xmlns="http://www.w3.org/2000/svg" viewBox="0 0 336.87 329.21"><defs><style>.cls-1{fill:#f99d3e;}.cls-2{fill:#fef2f1;}</style></defs><g id="Layer_2" data-name="Layer 2"><g id="Layer_1-2" data-name="Layer 1"><path class="cls-1" d="M107.88,58.21v93.44a7,7,0,0,1-7,7H74.48a7,7,0,0,1-7-7V67a3.28,3.28,0,0,0-3.38-3.16H56.42a2.5,2.5,0,0,1-2.48-2.48V53.92a3.09,3.09,0,0,0-3.16-3.16h-7a3.28,3.28,0,0,0-3.38,3.16v97.73a7,7,0,0,1-7,7H7a7,7,0,0,1-7-7V40.83a6.94,6.94,0,0,1,6.77-6.77h77a7.52,7.52,0,0,1,7.45,7.45v9.25h9.25A7.51,7.51,0,0,1,107.88,58.21Z"/><path class="cls-1" d="M232.35,59.58V107a8.52,8.52,0,0,1-8.35,8.57H168.48a3.52,3.52,0,0,0-3.61,3.39v9a3.47,3.47,0,0,0,3.39,3.38h7a3.09,3.09,0,0,1,3.16,3.16v6.55a3.28,3.28,0,0,0,3.39,3.16h6.77a3.28,3.28,0,0,0,3.38-3.16v-9.71a7.08,7.08,0,0,1,7-7.22h26.18a7.13,7.13,0,0,1,7.22,7.22v6.32a6.55,6.55,0,0,1-6.54,6.55H215.65v10.15a6.55,6.55,0,0,1-6.54,6.55H147.72a6.56,6.56,0,0,1-6.55-6.55V144.22H131a6.56,6.56,0,0,1-6.55-6.55V59.58A6.55,6.55,0,0,1,131,53h10.15V42.88a6.55,6.55,0,0,1,6.55-6.54h61.39a6.54,6.54,0,0,1,6.54,6.54V53h10.16A6.54,6.54,0,0,1,232.35,59.58ZM168.48,85.76h20.09A3.32,3.32,0,0,0,192,82.38V69.29a3.28,3.28,0,0,0-3.38-3.16h-7a3.28,3.28,0,0,1-3.16-3.39V56.2A3.08,3.08,0,0,0,175.25,53h-7a3.28,3.28,0,0,0-3.39,3.16V82.38A3.38,3.38,0,0,0,168.48,85.76Z"/><path class="cls-1" d="M298.54,66.13V128a3.47,3.47,0,0,0,3.39,3.38h19.41a6.27,6.27,0,0,1,6.32,6.1v17.37a6.27,6.27,0,0,1-6.32,6.1H280.49a5.64,5.64,0,0,1-5.87-5.64V144.22H263.79a5.79,5.79,0,0,1-5.87-5.65l.22-72.44H244.38a6,6,0,0,1-5.87-5.87V42.2a6,6,0,0,1,5.87-5.86h13.76V19.86a3.28,3.28,0,0,1,3.16-3.38H273a1.75,1.75,0,0,0,1.81-1.58V3.16A3.08,3.08,0,0,1,278,0h17.16a3.47,3.47,0,0,1,3.38,3.39v33h23.25a6,6,0,0,1,5.87,5.86V60.26a6,6,0,0,1-5.87,5.87Z"/><path class="cls-2" d="M167.49,173.1a14.82,14.82,0,0,0-5.27.72,7.65,7.65,0,0,0-4.72,4.75,8.46,8.46,0,0,0-.08,5,.55.55,0,0,1,0,.09V316.77a10.51,10.51,0,0,0,21,0V183.62a10.45,10.45,0,0,0-11-10.52Z"/><path class="cls-2" d="M333.55,309.38l-60-59.19,60.22-59.37a10.13,10.13,0,0,0,3-7.89,10.55,10.55,0,0,0-18-6.94v0l0,0-59.14,60.19L200.43,176l0,0,0,0a10.63,10.63,0,0,0-15,0,10.49,10.49,0,0,0-3,6.94,10.11,10.11,0,0,0,3,7.86l60.25,59.4-60,59.15a10.47,10.47,0,1,0,14.77,14.83l59.18-60,59.15,60a10.36,10.36,0,0,0,14.83,0C338,319.75,338,313.81,333.55,309.38Z"/><path class="cls-2" d="M144,174.79H8.93c-3.07,0-5.42,1-7,2.86A8.31,8.31,0,0,0,0,183.05a12.07,12.07,0,0,0,.65,3.82.62.62,0,0,0,0,.1V318.69a10.29,10.29,0,0,0,3.11,7.41,10.35,10.35,0,0,0,14.8,0,10.26,10.26,0,0,0,3.12-7.4V269.17H129.12a10.52,10.52,0,0,0,0-21H21.71V195.82H144a10.52,10.52,0,0,0,0-21Z"/></g></g></svg>