<svg xmlns="http://www.w3.org/2000/svg" viewBox="0 0 68.17 67.75"><defs><style>.cls-1{fill:#009567;}</style></defs><g id="Layer_2" data-name="Layer 2"><g id="Layer_1-2" data-name="Layer 1"><path class="cls-1" d="M.13,33.88C3.4-25.24,90.31.86,62.79,52.22,47,80.68-2.83,67.36.13,33.88Zm27,13.28c.65,2.35-1.56,9.1,1.38,9.41,2.43-.22,6.67,1,6.6-2.76.49-4.89-.83-11.25.36-15.73,4.6-2,8.22,2.55,8.61-5.89,1.2-4.79-6-1.93-8.9-3.08-1.84-15.71,6.63-6,9-12.7,0-4.85.06-4.86-5-4.86-19.59-1.66-8.35,16.56-13.37,18-8-.83-5.44,1.88-5.32,7.88C30.45,36.78,26.3,39.63,27.13,47.16Z"/></g></g></svg>