<svg xmlns="http://www.w3.org/2000/svg" viewBox="0 0 68.6 68.06"><defs><style>.cls-1{fill:#009567;}</style></defs><g id="Layer_2" data-name="Layer 2"><g id="Layer_1-2" data-name="Layer 1"><path class="cls-1" d="M33.88,68c-41.78.64-46.46-61.06-5.4-67,11.24-3.41,25.4,2.5,33.45,13.66C79.08,35.89,60.82,69.67,33.88,68Zm.41-52c-20.72-2.4-18.87,8.81-18.73,25a11.76,11.76,0,0,0,5,10.37c2.6,1.52,6.93-.26,9.56.94,5.39,2,10.35-1.09,15.8-.33,4.36-1.26,6.71-6.1,6.66-10.57C52.56,25.18,55.58,13.75,34.29,16Z"/><path class="cls-1" d="M34.12,49c-21.24,2.09-13-8.75-14.51-24,.14-8.83,17.85-3.78,23.93-5,9,.43,3.75,17.65,5,23.9C47.6,50.93,39.12,48.63,34.12,49Zm9.46-14.3C43.85,23,25.7,20.64,24.64,34,24.75,46.53,42.38,47,43.58,34.66Zm2.6-10.28c-1.4-1.81-4.1-1.92-4.4.11C42.24,26.53,44.87,26.39,46.18,24.38Z"/><path class="cls-1" d="M34.13,40c-3.78.76-6.15-2.78-6.36-6,1.77-7.77,10.48-7.9,12.76.6C38.19,37.64,39.71,40.25,34.13,40Z"/></g></g></svg>