<svg xmlns="http://www.w3.org/2000/svg" viewBox="0 0 68.74 68.24"><defs><style>.cls-1{fill:#009567;}</style></defs><g id="Layer_2" data-name="Layer 2"><g id="Layer_1-2" data-name="Layer 1"><path class="cls-1" d="M33.82.13c11-.33,19.08,3.88,26,11.31a32.53,32.53,0,0,1,8.93,22.71c0,10.24-4.27,18.92-12.13,25.88-7.28,6.46-15.67,8.68-25.11,8.12s-16.73-5-23.07-11.86c-6-6.43-8-14.2-8.4-22.46A30.81,30.81,0,0,1,4,18.09,31.59,31.59,0,0,1,16.14,5.16C21.82,1.91,27.73-.61,33.82.13ZM50.9,41.74c0-2,.08-4,0-6A11,11,0,0,0,50.23,32c-2.07-4.77-6-6.11-10.92-3.91-1,.43-2.46,1.18-2.94.81-1.85-1.46-3.84-.44-5.71-.78-1.7-.32-1.8.68-1.78,2,.06,5.16,0,10.31,0,15.47,0,4.61,0,4.54,4.78,4.54,1.6,0,2.46-.09,2.28-2.1-.23-2.64-.08-5.32-.05-8,0-3.61,1.44-4.93,5-5,1.37,0,2.08.14,2.05,1.82-.06,3.71-.23,7.4.82,11.1.44,1.54.46,2.19,2.27,2.17,4.86-.05,4.86.06,4.86-5Zm-25-2.6c0-3.16,0-6.32,0-9.48,0-.45-.2-1.29-.33-1.29q-3.16-.12-6.33,0c-.13,0-.31.84-.31,1.3,0,6.31,0,12.63,0,18.94,0,1,.1,1.6,1.28,1.53,1,0,2,0,3,0,2.71,0,2.72,0,2.74-2.53C25.92,44.78,25.9,42,25.9,39.14Zm-3.5-14c2.52-.24,4.76-2.67,4.5-4.87-.33-2.83-2.26-4.35-5.24-4.13-2.61.2-4.16,2.51-3.76,5.61A4.3,4.3,0,0,0,22.4,25.14Z"/></g></g></svg>