<svg xmlns="http://www.w3.org/2000/svg" viewBox="0 0 68.01 68.16"><defs><style>.cls-1{fill:#009567;}</style></defs><g id="Layer_2" data-name="Layer 2"><g id="Layer_1-2" data-name="Layer 1"><path class="cls-1" d="M33.83,0c47.08.3,44.68,70.27-2,68.12C-12,64.85-9.87,0,33.83,0Zm1.81,13c-10.71-.88-19.27,9.14-17.22,19.11.24,2.24,4.44,7.67,5.95,3.45,1.06-3.55-3.16-6-1.89-9.11,1.5-5.17,6.16-8.4,11.74-8.45,11.83-.26,14.09,16.05,4.18,20.58-8.31,1.64-3.32-8.24-3.12-12.45C35,19,26.76,24.83,27.42,28.73c1.75,2.54.61,4.87-.11,7.2-1.29,4.18-1.13,8.68-2.9,12.77-.79,2.1.22,4.49,1.45,6.3,5.78-4.21,4.17-14.91,7.36-12.66,3.6,2.8,7.28.91,10.52-1.32C55.26,33.22,50.4,11.91,35.64,13Z"/></g></g></svg>