<svg xmlns="http://www.w3.org/2000/svg" viewBox="0 0 68.22 68.69"><defs><style>.cls-1{fill:#009567;}</style></defs><g id="Layer_2" data-name="Layer 2"><g id="Layer_1-2" data-name="Layer 1"><path class="cls-1" d="M34.87,68.69C18.88,68,4.93,58.63.86,42.33-5.59,11.91,25.59-10.56,52.64,5.15,81,23.22,68.06,67.82,34.87,68.69Zm-.22-39.46c0,4.49,0,9,0,13.47-.55,8.34-13.15,5.24-9.83-2.5,1-4.67,6.58-.35,5.83-4.78C32.15,25,19.58,33.36,18.6,38.87,14.81,52,30.36,58.8,38.57,49.94c4.14-6.64,2.77-14.61,3.33-22.06,4.42.42,9.72,5.27,8.74-2.83-.72-4.4-7.07-.73-8-7.4-.75-2.91-1.08-3-3.81-3-1.56.28-4.42-.94-4.18,1.63C34.7,20.58,34.65,24.9,34.65,29.23Z"/></g></g></svg>