<svg xmlns="http://www.w3.org/2000/svg" viewBox="0 0 69.16 67.97"><defs><style>.cls-1{fill:#009567;}</style></defs><g id="Layer_2" data-name="Layer 2"><g id="Layer_1-2" data-name="Layer 1"><path class="cls-1" d="M69.16,33.43C66.4,80.05,1,79.15,0,32.69,4.39-11.43,65.08-10.61,69.16,33.43Zm-33.44-21C21.24,10.55,10,27.52,16,40.43c.53,1.28,1,2,.17,3.76-1.13,2.29-.94,5.27-1.17,8-.83,3.47,9.06-3.34,15.63.43C44.49,57.13,59.92,41,55,26.84,52.17,18.92,44.45,11.39,35.72,12.43Z"/><path class="cls-1" d="M51,32.58C52,45.13,37.65,52.12,27.23,47.1c-2.27-1.81-6,2.3-7.25-.92,2-3.18.51-5.9-.57-9C13.3,13.39,50.36,8.34,51,32.58ZM39.42,42.43c2.51.5,4.17-.62,5.39-2.51.35-.41-.1-1.51-.19-2.29-1.91.26-3.5-2.13-5.37-.94-2.54,1.62-4.2.6-5.85-1.27-7.3-5.63.24-5.94-3.52-12.17-.22-.41-1.15-.91-1.41-.76C19,27.65,31.42,42.78,39.42,42.43Z"/></g></g></svg>