<svg xmlns="http://www.w3.org/2000/svg" viewBox="0 0 68.37 68.2"><defs><style>.cls-1{fill:#009567;}</style></defs><g id="Layer_2" data-name="Layer 2"><g id="Layer_1-2" data-name="Layer 1"><path class="cls-1" d="M33.11,68C.9,69-12.09,24.38,13.67,7.05c23-19.34,60.79,4.27,53.87,32.67C66.17,56.46,49.82,69.8,33.11,68ZM46.79,52c1.21-.36,8.12,1.07,6.07-1.26-4.46-6.05-8.34-12.54-12.77-18.62C38,28.51,52.26,21,52,16c-1.56.29-3.37-.79-4.68.72C43.49,20.16,40.47,24.13,37.1,28c-2.94-2.82-6.89-11.67-10.2-12-2.1.79-14-1.69-12.07,1.82C19.1,24.14,24.3,30.26,28.35,36.6a119.22,119.22,0,0,1-12.9,14c-1.07,1-.74.9.46,1.6,6.38,1.89,9.37-7.71,13.73-10.78,1.43-3.51,5.54,5.85,7.15,7.22C38.74,52.77,42.74,52.13,46.79,52Z"/><path class="cls-1" d="M43.64,48.42c-2.52-.86-3.87-2.85-5.22-5C33.58,36.46,27.9,30,23.54,22.73c-2.25-2.08-.28-3.33,2.12-2.61a5.27,5.27,0,0,1,2.54,2.16c4.12,7.6,10.43,13.7,14.48,21.35C43.77,45.27,47.6,47.35,43.64,48.42Z"/></g></g></svg>