<svg xmlns="http://www.w3.org/2000/svg" viewBox="0 0 68.98 67.85"><defs><style>.cls-1{fill:#009567;}</style></defs><g id="Layer_2" data-name="Layer 2"><g id="Layer_1-2" data-name="Layer 1"><path class="cls-1" d="M0,32.79C3.51-11.38,67-11,69,34.24,65.68,80,1.38,78.57,0,32.79ZM34.3,48.51C40.81,47.37,54,52.26,55,42.76c-1.16-7,4.35-22.59-6.21-23.25-32,2-36.34-9.34-34.74,22.22C14.17,52.3,27.52,47.48,34.3,48.51Z"/><path class="cls-1" d="M30.15,28.15c12.39,5.65,12,5.58.17,11.3-.21.11-1.19-.6-1.2-.94C29.5,35.12,27.84,30.88,30.15,28.15Z"/></g></g></svg>